<mxfile host="app.diagrams.net" agent="Mozilla/5.0 (X11; Ubuntu; Linux x86_64; rv:137.0) Gecko/20100101 Firefox/137.0" version="26.2.13" pages="5">
  <diagram name="Página-1" id="CQhDHR9ghVoG3KZ6cApy">
    <mxGraphModel dx="1362" dy="795" grid="1" gridSize="10" guides="1" tooltips="1" connect="1" arrows="1" fold="1" page="1" pageScale="1" pageWidth="827" pageHeight="1169" math="0" shadow="0">
      <root>
        <mxCell id="0" />
        <mxCell id="1" parent="0" />
        <mxCell id="P5yH0mgyKWqApR0WP4b0-2" style="edgeStyle=orthogonalEdgeStyle;rounded=0;orthogonalLoop=1;jettySize=auto;html=1;" edge="1" parent="1" source="P5yH0mgyKWqApR0WP4b0-1" target="P5yH0mgyKWqApR0WP4b0-3">
          <mxGeometry relative="1" as="geometry">
            <mxPoint x="420" y="190" as="targetPoint" />
          </mxGeometry>
        </mxCell>
        <mxCell id="P5yH0mgyKWqApR0WP4b0-1" value="INICIO" style="ellipse;whiteSpace=wrap;html=1;" vertex="1" parent="1">
          <mxGeometry x="360" y="40" width="120" height="80" as="geometry" />
        </mxCell>
        <mxCell id="P5yH0mgyKWqApR0WP4b0-4" style="edgeStyle=orthogonalEdgeStyle;rounded=0;orthogonalLoop=1;jettySize=auto;html=1;" edge="1" parent="1" source="P5yH0mgyKWqApR0WP4b0-3" target="P5yH0mgyKWqApR0WP4b0-5">
          <mxGeometry relative="1" as="geometry">
            <mxPoint x="420" y="280" as="targetPoint" />
          </mxGeometry>
        </mxCell>
        <mxCell id="P5yH0mgyKWqApR0WP4b0-3" value="DIGITE EL PRIMER NUMERO" style="shape=parallelogram;perimeter=parallelogramPerimeter;whiteSpace=wrap;html=1;fixedSize=1;" vertex="1" parent="1">
          <mxGeometry x="345" y="170" width="150" height="60" as="geometry" />
        </mxCell>
        <mxCell id="P5yH0mgyKWqApR0WP4b0-6" style="edgeStyle=orthogonalEdgeStyle;rounded=0;orthogonalLoop=1;jettySize=auto;html=1;" edge="1" parent="1" source="P5yH0mgyKWqApR0WP4b0-5" target="P5yH0mgyKWqApR0WP4b0-7">
          <mxGeometry relative="1" as="geometry">
            <mxPoint x="420" y="380" as="targetPoint" />
          </mxGeometry>
        </mxCell>
        <mxCell id="P5yH0mgyKWqApR0WP4b0-5" value="DIGITE EL SEGUNDO NUMERO" style="shape=parallelogram;perimeter=parallelogramPerimeter;whiteSpace=wrap;html=1;fixedSize=1;" vertex="1" parent="1">
          <mxGeometry x="340" y="270" width="160" height="60" as="geometry" />
        </mxCell>
        <mxCell id="P5yH0mgyKWqApR0WP4b0-8" style="edgeStyle=orthogonalEdgeStyle;rounded=0;orthogonalLoop=1;jettySize=auto;html=1;" edge="1" parent="1" source="P5yH0mgyKWqApR0WP4b0-7" target="P5yH0mgyKWqApR0WP4b0-9">
          <mxGeometry relative="1" as="geometry">
            <mxPoint x="420" y="520" as="targetPoint" />
          </mxGeometry>
        </mxCell>
        <mxCell id="P5yH0mgyKWqApR0WP4b0-7" value="DIGITE EL TERCER NUMERO" style="shape=parallelogram;perimeter=parallelogramPerimeter;whiteSpace=wrap;html=1;fixedSize=1;" vertex="1" parent="1">
          <mxGeometry x="317.5" y="390" width="205" height="60" as="geometry" />
        </mxCell>
        <mxCell id="P5yH0mgyKWqApR0WP4b0-11" style="edgeStyle=orthogonalEdgeStyle;rounded=0;orthogonalLoop=1;jettySize=auto;html=1;" edge="1" parent="1" source="P5yH0mgyKWqApR0WP4b0-9" target="P5yH0mgyKWqApR0WP4b0-15">
          <mxGeometry relative="1" as="geometry">
            <mxPoint x="610" y="575" as="targetPoint" />
          </mxGeometry>
        </mxCell>
        <mxCell id="P5yH0mgyKWqApR0WP4b0-12" style="edgeStyle=orthogonalEdgeStyle;rounded=0;orthogonalLoop=1;jettySize=auto;html=1;" edge="1" parent="1" source="P5yH0mgyKWqApR0WP4b0-9" target="P5yH0mgyKWqApR0WP4b0-14">
          <mxGeometry relative="1" as="geometry">
            <mxPoint x="220" y="575" as="targetPoint" />
          </mxGeometry>
        </mxCell>
        <mxCell id="P5yH0mgyKWqApR0WP4b0-9" value="&lt;div style=&quot;color: rgb(204, 204, 204); background-color: rgb(31, 31, 31); font-family: &amp;quot;Droid Sans Mono&amp;quot;, &amp;quot;monospace&amp;quot;, monospace; font-weight: normal; font-size: 14px; line-height: 19px; white-space: pre;&quot;&gt;&lt;div&gt;&lt;span style=&quot;color: rgb(156, 220, 254);&quot;&gt;umero1&lt;/span&gt;&lt;span style=&quot;color: rgb(212, 212, 212);&quot;&gt;&amp;lt;&lt;/span&gt;&lt;span style=&quot;color: rgb(156, 220, 254);&quot;&gt;numero2&lt;/span&gt;&lt;span style=&quot;color: rgb(204, 204, 204);&quot;&gt;&lt;br&gt;&lt;/span&gt;&lt;/div&gt;&lt;div&gt;&lt;span style=&quot;color: rgb(204, 204, 204);&quot;&gt; &lt;/span&gt;&lt;span style=&quot;color: rgb(86, 156, 214);&quot;&gt;and&lt;/span&gt;&lt;span style=&quot;color: rgb(204, 204, 204);&quot;&gt; &lt;/span&gt;&lt;span style=&quot;color: rgb(156, 220, 254);&quot;&gt;numero1&lt;/span&gt;&lt;span style=&quot;color: rgb(212, 212, 212);&quot;&gt;&amp;lt;&lt;/span&gt;&lt;span style=&quot;color: rgb(156, 220, 254);&quot;&gt;numero3&lt;/span&gt;&lt;/div&gt;&lt;/div&gt;" style="rhombus;whiteSpace=wrap;html=1;" vertex="1" parent="1">
          <mxGeometry x="315" y="490" width="210" height="170" as="geometry" />
        </mxCell>
        <mxCell id="P5yH0mgyKWqApR0WP4b0-13" value="SI" style="text;html=1;align=center;verticalAlign=middle;resizable=0;points=[];autosize=1;strokeColor=none;fillColor=none;" vertex="1" parent="1">
          <mxGeometry x="246" y="538" width="30" height="30" as="geometry" />
        </mxCell>
        <mxCell id="P5yH0mgyKWqApR0WP4b0-14" value="EL NUMERO MAS PEQUEÑO ES NUMERO1" style="shape=parallelogram;perimeter=parallelogramPerimeter;whiteSpace=wrap;html=1;fixedSize=1;" vertex="1" parent="1">
          <mxGeometry x="46" y="537.5" width="200" height="75" as="geometry" />
        </mxCell>
        <mxCell id="P5yH0mgyKWqApR0WP4b0-16" style="edgeStyle=orthogonalEdgeStyle;rounded=0;orthogonalLoop=1;jettySize=auto;html=1;" edge="1" parent="1" source="P5yH0mgyKWqApR0WP4b0-15" target="P5yH0mgyKWqApR0WP4b0-18">
          <mxGeometry relative="1" as="geometry">
            <mxPoint x="890" y="522.5" as="targetPoint" />
          </mxGeometry>
        </mxCell>
        <mxCell id="P5yH0mgyKWqApR0WP4b0-19" style="edgeStyle=orthogonalEdgeStyle;rounded=0;orthogonalLoop=1;jettySize=auto;html=1;" edge="1" parent="1" source="P5yH0mgyKWqApR0WP4b0-15" target="P5yH0mgyKWqApR0WP4b0-20">
          <mxGeometry relative="1" as="geometry">
            <mxPoint x="680" y="740" as="targetPoint" />
          </mxGeometry>
        </mxCell>
        <mxCell id="P5yH0mgyKWqApR0WP4b0-15" value="&lt;div style=&quot;color: #cccccc;background-color: #1f1f1f;font-family: &#39;Droid Sans Mono&#39;, &#39;monospace&#39;, monospace;font-weight: normal;font-size: 14px;line-height: 19px;white-space: pre;&quot;&gt;&lt;div&gt;&lt;span style=&quot;color: #9cdcfe;&quot;&gt;numero2&lt;/span&gt;&lt;span style=&quot;color: #d4d4d4;&quot;&gt;&amp;lt;&lt;/span&gt;&lt;span style=&quot;color: #9cdcfe;&quot;&gt;numero3&lt;/span&gt;&lt;span style=&quot;color: #cccccc;&quot;&gt; &lt;/span&gt;&lt;/div&gt;&lt;div&gt;&lt;span style=&quot;color: #569cd6;&quot;&gt;and&lt;/span&gt;&lt;span style=&quot;color: #cccccc;&quot;&gt; &lt;/span&gt;&lt;/div&gt;&lt;div&gt;&lt;span style=&quot;color: #9cdcfe;&quot;&gt;numero2&lt;/span&gt;&lt;span style=&quot;color: #d4d4d4;&quot;&gt;&amp;lt;&lt;/span&gt;&lt;span style=&quot;color: #9cdcfe;&quot;&gt;numero1&lt;/span&gt;&lt;/div&gt;&lt;/div&gt;" style="rhombus;whiteSpace=wrap;html=1;" vertex="1" parent="1">
          <mxGeometry x="570" y="430" width="210" height="185" as="geometry" />
        </mxCell>
        <mxCell id="P5yH0mgyKWqApR0WP4b0-17" value="NO" style="text;html=1;align=center;verticalAlign=middle;resizable=0;points=[];autosize=1;strokeColor=none;fillColor=none;" vertex="1" parent="1">
          <mxGeometry x="801" y="488" width="40" height="30" as="geometry" />
        </mxCell>
        <mxCell id="P5yH0mgyKWqApR0WP4b0-18" value="EL NUMERO MAS PEQUEÑO ES EL NUMERO 3" style="shape=parallelogram;perimeter=parallelogramPerimeter;whiteSpace=wrap;html=1;fixedSize=1;" vertex="1" parent="1">
          <mxGeometry x="860" y="492.5" width="150" height="60" as="geometry" />
        </mxCell>
        <mxCell id="P5yH0mgyKWqApR0WP4b0-23" style="edgeStyle=orthogonalEdgeStyle;rounded=0;orthogonalLoop=1;jettySize=auto;html=1;entryX=0.5;entryY=0;entryDx=0;entryDy=0;" edge="1" parent="1" source="P5yH0mgyKWqApR0WP4b0-20" target="P5yH0mgyKWqApR0WP4b0-21">
          <mxGeometry relative="1" as="geometry" />
        </mxCell>
        <mxCell id="P5yH0mgyKWqApR0WP4b0-20" value="EL NUMERO MAS PEQUEÑO ES EL NUMERO2" style="shape=parallelogram;perimeter=parallelogramPerimeter;whiteSpace=wrap;html=1;fixedSize=1;" vertex="1" parent="1">
          <mxGeometry x="540" y="710" width="220" height="80" as="geometry" />
        </mxCell>
        <mxCell id="P5yH0mgyKWqApR0WP4b0-21" value="FIN" style="ellipse;whiteSpace=wrap;html=1;" vertex="1" parent="1">
          <mxGeometry x="460" y="850" width="120" height="80" as="geometry" />
        </mxCell>
        <mxCell id="P5yH0mgyKWqApR0WP4b0-22" style="edgeStyle=orthogonalEdgeStyle;rounded=0;orthogonalLoop=1;jettySize=auto;html=1;" edge="1" parent="1" source="P5yH0mgyKWqApR0WP4b0-14" target="P5yH0mgyKWqApR0WP4b0-21">
          <mxGeometry relative="1" as="geometry">
            <Array as="points">
              <mxPoint x="190" y="900" />
            </Array>
          </mxGeometry>
        </mxCell>
        <mxCell id="P5yH0mgyKWqApR0WP4b0-24" style="edgeStyle=orthogonalEdgeStyle;rounded=0;orthogonalLoop=1;jettySize=auto;html=1;entryX=1.008;entryY=0.688;entryDx=0;entryDy=0;entryPerimeter=0;" edge="1" parent="1" source="P5yH0mgyKWqApR0WP4b0-18" target="P5yH0mgyKWqApR0WP4b0-21">
          <mxGeometry relative="1" as="geometry">
            <Array as="points">
              <mxPoint x="920" y="905" />
            </Array>
          </mxGeometry>
        </mxCell>
      </root>
    </mxGraphModel>
  </diagram>
  <diagram id="__AO9uq917m2nWuWlcmp" name="Página-2">
    <mxGraphModel dx="1362" dy="795" grid="1" gridSize="10" guides="1" tooltips="1" connect="1" arrows="1" fold="1" page="1" pageScale="1" pageWidth="827" pageHeight="1169" math="0" shadow="0">
      <root>
        <mxCell id="0" />
        <mxCell id="1" parent="0" />
        <mxCell id="RQcBp57bDvlC5C46r6jB-2" style="edgeStyle=orthogonalEdgeStyle;rounded=0;orthogonalLoop=1;jettySize=auto;html=1;" edge="1" parent="1" source="RQcBp57bDvlC5C46r6jB-1" target="RQcBp57bDvlC5C46r6jB-3">
          <mxGeometry relative="1" as="geometry">
            <mxPoint x="420" y="150" as="targetPoint" />
          </mxGeometry>
        </mxCell>
        <mxCell id="RQcBp57bDvlC5C46r6jB-1" value="INICIO" style="ellipse;whiteSpace=wrap;html=1;" vertex="1" parent="1">
          <mxGeometry x="360" y="10" width="120" height="80" as="geometry" />
        </mxCell>
        <mxCell id="RQcBp57bDvlC5C46r6jB-4" style="edgeStyle=orthogonalEdgeStyle;rounded=0;orthogonalLoop=1;jettySize=auto;html=1;" edge="1" parent="1" source="RQcBp57bDvlC5C46r6jB-3" target="RQcBp57bDvlC5C46r6jB-5">
          <mxGeometry relative="1" as="geometry">
            <mxPoint x="430" y="310" as="targetPoint" />
          </mxGeometry>
        </mxCell>
        <mxCell id="RQcBp57bDvlC5C46r6jB-3" value="&lt;div style=&quot;color: #cccccc;background-color: #1f1f1f;font-family: &#39;Droid Sans Mono&#39;, &#39;monospace&#39;, monospace;font-weight: normal;font-size: 14px;line-height: 19px;white-space: pre;&quot;&gt;&lt;div&gt;&lt;span style=&quot;color: #ce9178;&quot;&gt;digite un numero del 1 al &lt;/span&gt;&lt;/div&gt;&lt;div&gt;&lt;span style=&quot;color: #ce9178;&quot;&gt;10 y te diré si &lt;/span&gt;&lt;/div&gt;&lt;div&gt;&lt;span style=&quot;color: #ce9178;&quot;&gt;esta en la lista&lt;/span&gt;&lt;/div&gt;&lt;/div&gt;" style="shape=parallelogram;perimeter=parallelogramPerimeter;whiteSpace=wrap;html=1;fixedSize=1;" vertex="1" parent="1">
          <mxGeometry x="250" y="160" width="335" height="80" as="geometry" />
        </mxCell>
        <mxCell id="RQcBp57bDvlC5C46r6jB-7" style="edgeStyle=orthogonalEdgeStyle;rounded=0;orthogonalLoop=1;jettySize=auto;html=1;" edge="1" parent="1" source="RQcBp57bDvlC5C46r6jB-5">
          <mxGeometry relative="1" as="geometry">
            <mxPoint x="600" y="355" as="targetPoint" />
          </mxGeometry>
        </mxCell>
        <mxCell id="RQcBp57bDvlC5C46r6jB-9" style="edgeStyle=orthogonalEdgeStyle;rounded=0;orthogonalLoop=1;jettySize=auto;html=1;" edge="1" parent="1" source="RQcBp57bDvlC5C46r6jB-5" target="RQcBp57bDvlC5C46r6jB-12">
          <mxGeometry relative="1" as="geometry">
            <mxPoint x="230" y="355" as="targetPoint" />
          </mxGeometry>
        </mxCell>
        <mxCell id="RQcBp57bDvlC5C46r6jB-5" value="&lt;div style=&quot;color: #cccccc;background-color: #1f1f1f;font-family: &#39;Droid Sans Mono&#39;, &#39;monospace&#39;, monospace;font-weight: normal;font-size: 14px;line-height: 19px;white-space: pre;&quot;&gt;&lt;div&gt;&lt;span style=&quot;color: #9cdcfe;&quot;&gt;numero&lt;/span&gt;&lt;span style=&quot;color: #cccccc;&quot;&gt; &lt;/span&gt;&lt;span style=&quot;color: #569cd6;&quot;&gt;in&lt;/span&gt;&lt;span style=&quot;color: #cccccc;&quot;&gt; &lt;/span&gt;&lt;span style=&quot;color: #9cdcfe;&quot;&gt;lista&lt;/span&gt;&lt;/div&gt;&lt;/div&gt;" style="rhombus;whiteSpace=wrap;html=1;" vertex="1" parent="1">
          <mxGeometry x="332.5" y="290" width="170" height="130" as="geometry" />
        </mxCell>
        <mxCell id="RQcBp57bDvlC5C46r6jB-8" value="SI" style="text;html=1;align=center;verticalAlign=middle;resizable=0;points=[];autosize=1;strokeColor=none;fillColor=none;" vertex="1" parent="1">
          <mxGeometry x="546" y="328" width="30" height="30" as="geometry" />
        </mxCell>
        <mxCell id="RQcBp57bDvlC5C46r6jB-10" value="&lt;div&gt;NO&lt;/div&gt;" style="text;html=1;align=center;verticalAlign=middle;resizable=0;points=[];autosize=1;strokeColor=none;fillColor=none;" vertex="1" parent="1">
          <mxGeometry x="261" y="328" width="40" height="30" as="geometry" />
        </mxCell>
        <mxCell id="RQcBp57bDvlC5C46r6jB-15" style="edgeStyle=orthogonalEdgeStyle;rounded=0;orthogonalLoop=1;jettySize=auto;html=1;entryX=1;entryY=0.5;entryDx=0;entryDy=0;" edge="1" parent="1" source="RQcBp57bDvlC5C46r6jB-11" target="RQcBp57bDvlC5C46r6jB-13">
          <mxGeometry relative="1" as="geometry">
            <Array as="points">
              <mxPoint x="610" y="530" />
            </Array>
          </mxGeometry>
        </mxCell>
        <mxCell id="RQcBp57bDvlC5C46r6jB-11" value="EL NUMERO ESTA EN LA LISTA" style="shape=parallelogram;perimeter=parallelogramPerimeter;whiteSpace=wrap;html=1;fixedSize=1;" vertex="1" parent="1">
          <mxGeometry x="585" y="328" width="165" height="60" as="geometry" />
        </mxCell>
        <mxCell id="RQcBp57bDvlC5C46r6jB-14" style="edgeStyle=orthogonalEdgeStyle;rounded=0;orthogonalLoop=1;jettySize=auto;html=1;entryX=0;entryY=0.5;entryDx=0;entryDy=0;" edge="1" parent="1" source="RQcBp57bDvlC5C46r6jB-12" target="RQcBp57bDvlC5C46r6jB-13">
          <mxGeometry relative="1" as="geometry">
            <Array as="points">
              <mxPoint x="240" y="530" />
            </Array>
          </mxGeometry>
        </mxCell>
        <mxCell id="RQcBp57bDvlC5C46r6jB-12" value="EL NUMERO NO ESTA EN LA LISTA" style="shape=parallelogram;perimeter=parallelogramPerimeter;whiteSpace=wrap;html=1;fixedSize=1;" vertex="1" parent="1">
          <mxGeometry x="110" y="325" width="180" height="60" as="geometry" />
        </mxCell>
        <mxCell id="RQcBp57bDvlC5C46r6jB-13" value="FIN" style="ellipse;whiteSpace=wrap;html=1;" vertex="1" parent="1">
          <mxGeometry x="340" y="490" width="120" height="80" as="geometry" />
        </mxCell>
      </root>
    </mxGraphModel>
  </diagram>
  <diagram id="dEANj1RnwxJwv8smxoNJ" name="Página-3">
    <mxGraphModel dx="1362" dy="795" grid="1" gridSize="10" guides="1" tooltips="1" connect="1" arrows="1" fold="1" page="1" pageScale="1" pageWidth="827" pageHeight="1169" math="0" shadow="0">
      <root>
        <mxCell id="0" />
        <mxCell id="1" parent="0" />
        <mxCell id="NspxR2euJe4MnOd_-PfO-2" style="edgeStyle=orthogonalEdgeStyle;rounded=0;orthogonalLoop=1;jettySize=auto;html=1;" edge="1" parent="1" source="NspxR2euJe4MnOd_-PfO-1" target="NspxR2euJe4MnOd_-PfO-3">
          <mxGeometry relative="1" as="geometry">
            <mxPoint x="420" y="230" as="targetPoint" />
          </mxGeometry>
        </mxCell>
        <mxCell id="NspxR2euJe4MnOd_-PfO-1" value="INICIO" style="ellipse;whiteSpace=wrap;html=1;" vertex="1" parent="1">
          <mxGeometry x="360" y="60" width="120" height="80" as="geometry" />
        </mxCell>
        <mxCell id="NspxR2euJe4MnOd_-PfO-4" style="edgeStyle=orthogonalEdgeStyle;rounded=0;orthogonalLoop=1;jettySize=auto;html=1;" edge="1" parent="1" source="NspxR2euJe4MnOd_-PfO-3" target="NspxR2euJe4MnOd_-PfO-6">
          <mxGeometry relative="1" as="geometry">
            <mxPoint x="420" y="330" as="targetPoint" />
          </mxGeometry>
        </mxCell>
        <mxCell id="NspxR2euJe4MnOd_-PfO-3" value="INGRESE EL NOMBRE QUE DESEA AGREGAR A LA LISTA" style="shape=parallelogram;perimeter=parallelogramPerimeter;whiteSpace=wrap;html=1;fixedSize=1;" vertex="1" parent="1">
          <mxGeometry x="320" y="210" width="200" height="60" as="geometry" />
        </mxCell>
        <mxCell id="NspxR2euJe4MnOd_-PfO-7" style="edgeStyle=orthogonalEdgeStyle;rounded=0;orthogonalLoop=1;jettySize=auto;html=1;entryX=1;entryY=0.5;entryDx=0;entryDy=0;" edge="1" parent="1" source="NspxR2euJe4MnOd_-PfO-6" target="NspxR2euJe4MnOd_-PfO-3">
          <mxGeometry relative="1" as="geometry">
            <mxPoint x="620" y="375" as="targetPoint" />
            <Array as="points">
              <mxPoint x="580" y="375" />
              <mxPoint x="580" y="240" />
            </Array>
          </mxGeometry>
        </mxCell>
        <mxCell id="NspxR2euJe4MnOd_-PfO-11" style="edgeStyle=orthogonalEdgeStyle;rounded=0;orthogonalLoop=1;jettySize=auto;html=1;" edge="1" parent="1" source="NspxR2euJe4MnOd_-PfO-6" target="NspxR2euJe4MnOd_-PfO-12">
          <mxGeometry relative="1" as="geometry">
            <mxPoint x="250" y="375" as="targetPoint" />
          </mxGeometry>
        </mxCell>
        <mxCell id="NspxR2euJe4MnOd_-PfO-6" value="DESEA AGREGAR OTRO NOMBRE?" style="rhombus;whiteSpace=wrap;html=1;" vertex="1" parent="1">
          <mxGeometry x="325" y="320" width="190" height="110" as="geometry" />
        </mxCell>
        <mxCell id="NspxR2euJe4MnOd_-PfO-8" value="SI" style="text;html=1;align=center;verticalAlign=middle;resizable=0;points=[];autosize=1;strokeColor=none;fillColor=none;" vertex="1" parent="1">
          <mxGeometry x="546" y="348" width="30" height="30" as="geometry" />
        </mxCell>
        <mxCell id="NspxR2euJe4MnOd_-PfO-13" style="edgeStyle=orthogonalEdgeStyle;rounded=0;orthogonalLoop=1;jettySize=auto;html=1;" edge="1" parent="1" source="NspxR2euJe4MnOd_-PfO-12">
          <mxGeometry relative="1" as="geometry">
            <mxPoint x="210" y="460" as="targetPoint" />
          </mxGeometry>
        </mxCell>
        <mxCell id="NspxR2euJe4MnOd_-PfO-12" value="LISTA" style="shape=parallelogram;perimeter=parallelogramPerimeter;whiteSpace=wrap;html=1;fixedSize=1;" vertex="1" parent="1">
          <mxGeometry x="150" y="345" width="120" height="60" as="geometry" />
        </mxCell>
        <mxCell id="NspxR2euJe4MnOd_-PfO-15" value="FIN" style="ellipse;whiteSpace=wrap;html=1;" vertex="1" parent="1">
          <mxGeometry x="150" y="460" width="120" height="80" as="geometry" />
        </mxCell>
      </root>
    </mxGraphModel>
  </diagram>
  <diagram id="w0_kVz9INMYXYHDLRYxk" name="Página-4">
    <mxGraphModel dx="1362" dy="795" grid="1" gridSize="10" guides="1" tooltips="1" connect="1" arrows="1" fold="1" page="1" pageScale="1" pageWidth="827" pageHeight="1169" math="0" shadow="0">
      <root>
        <mxCell id="0" />
        <mxCell id="1" parent="0" />
        <mxCell id="r-qH8hkAHXEWe9PjuCYb-2" style="edgeStyle=orthogonalEdgeStyle;rounded=0;orthogonalLoop=1;jettySize=auto;html=1;" edge="1" parent="1" source="r-qH8hkAHXEWe9PjuCYb-1" target="r-qH8hkAHXEWe9PjuCYb-3">
          <mxGeometry relative="1" as="geometry">
            <mxPoint x="430" y="200" as="targetPoint" />
          </mxGeometry>
        </mxCell>
        <mxCell id="r-qH8hkAHXEWe9PjuCYb-1" value="&lt;div&gt;INICIO&lt;/div&gt;" style="ellipse;whiteSpace=wrap;html=1;" vertex="1" parent="1">
          <mxGeometry x="370" y="50" width="120" height="80" as="geometry" />
        </mxCell>
        <mxCell id="r-qH8hkAHXEWe9PjuCYb-4" style="edgeStyle=orthogonalEdgeStyle;rounded=0;orthogonalLoop=1;jettySize=auto;html=1;" edge="1" parent="1" source="r-qH8hkAHXEWe9PjuCYb-3" target="r-qH8hkAHXEWe9PjuCYb-6">
          <mxGeometry relative="1" as="geometry">
            <mxPoint x="430" y="290" as="targetPoint" />
          </mxGeometry>
        </mxCell>
        <mxCell id="r-qH8hkAHXEWe9PjuCYb-3" value="DIGITE SU EDAD" style="shape=parallelogram;perimeter=parallelogramPerimeter;whiteSpace=wrap;html=1;fixedSize=1;" vertex="1" parent="1">
          <mxGeometry x="370" y="170" width="120" height="60" as="geometry" />
        </mxCell>
        <mxCell id="r-qH8hkAHXEWe9PjuCYb-7" style="edgeStyle=orthogonalEdgeStyle;rounded=0;orthogonalLoop=1;jettySize=auto;html=1;" edge="1" parent="1" source="r-qH8hkAHXEWe9PjuCYb-6" target="r-qH8hkAHXEWe9PjuCYb-9">
          <mxGeometry relative="1" as="geometry">
            <mxPoint x="610" y="365" as="targetPoint" />
          </mxGeometry>
        </mxCell>
        <mxCell id="r-qH8hkAHXEWe9PjuCYb-10" style="edgeStyle=orthogonalEdgeStyle;rounded=0;orthogonalLoop=1;jettySize=auto;html=1;" edge="1" parent="1" source="r-qH8hkAHXEWe9PjuCYb-6" target="r-qH8hkAHXEWe9PjuCYb-12">
          <mxGeometry relative="1" as="geometry">
            <mxPoint x="240" y="365" as="targetPoint" />
          </mxGeometry>
        </mxCell>
        <mxCell id="r-qH8hkAHXEWe9PjuCYb-6" value="&lt;div style=&quot;color: #cccccc;background-color: #1f1f1f;font-family: &#39;Droid Sans Mono&#39;, &#39;monospace&#39;, monospace;font-weight: normal;font-size: 14px;line-height: 19px;white-space: pre;&quot;&gt;&lt;div&gt;&lt;span style=&quot;color: #9cdcfe;&quot;&gt;edad&lt;/span&gt;&lt;span style=&quot;color: #d4d4d4;&quot;&gt;&amp;lt;&lt;/span&gt;&lt;span style=&quot;color: #b5cea8;&quot;&gt;0&lt;/span&gt;&lt;span style=&quot;color: #cccccc;&quot;&gt; &lt;/span&gt;&lt;span style=&quot;color: #569cd6;&quot;&gt;or&lt;/span&gt;&lt;span style=&quot;color: #cccccc;&quot;&gt; &lt;/span&gt;&lt;/div&gt;&lt;div&gt;&lt;span style=&quot;color: #9cdcfe;&quot;&gt;edad&lt;/span&gt;&lt;span style=&quot;color: #d4d4d4;&quot;&gt;&amp;gt;&lt;/span&gt;&lt;span style=&quot;color: #b5cea8;&quot;&gt;120&lt;/span&gt;&lt;/div&gt;&lt;/div&gt;" style="rhombus;whiteSpace=wrap;html=1;" vertex="1" parent="1">
          <mxGeometry x="355" y="300" width="150" height="130" as="geometry" />
        </mxCell>
        <mxCell id="r-qH8hkAHXEWe9PjuCYb-8" value="SI" style="text;html=1;align=center;verticalAlign=middle;resizable=0;points=[];autosize=1;strokeColor=none;fillColor=none;" vertex="1" parent="1">
          <mxGeometry x="520" y="335" width="30" height="30" as="geometry" />
        </mxCell>
        <mxCell id="r-qH8hkAHXEWe9PjuCYb-15" style="edgeStyle=orthogonalEdgeStyle;rounded=0;orthogonalLoop=1;jettySize=auto;html=1;entryX=1;entryY=0.5;entryDx=0;entryDy=0;" edge="1" parent="1" source="r-qH8hkAHXEWe9PjuCYb-9" target="r-qH8hkAHXEWe9PjuCYb-13">
          <mxGeometry relative="1" as="geometry">
            <Array as="points">
              <mxPoint x="600" y="530" />
            </Array>
          </mxGeometry>
        </mxCell>
        <mxCell id="r-qH8hkAHXEWe9PjuCYb-9" value="EDAD NO VALIDA" style="shape=parallelogram;perimeter=parallelogramPerimeter;whiteSpace=wrap;html=1;fixedSize=1;" vertex="1" parent="1">
          <mxGeometry x="550" y="335" width="150" height="60" as="geometry" />
        </mxCell>
        <mxCell id="r-qH8hkAHXEWe9PjuCYb-11" value="NO" style="text;html=1;align=center;verticalAlign=middle;resizable=0;points=[];autosize=1;strokeColor=none;fillColor=none;" vertex="1" parent="1">
          <mxGeometry x="291" y="338" width="40" height="30" as="geometry" />
        </mxCell>
        <mxCell id="r-qH8hkAHXEWe9PjuCYb-14" style="edgeStyle=orthogonalEdgeStyle;rounded=0;orthogonalLoop=1;jettySize=auto;html=1;entryX=0;entryY=0.5;entryDx=0;entryDy=0;" edge="1" parent="1" source="r-qH8hkAHXEWe9PjuCYb-12" target="r-qH8hkAHXEWe9PjuCYb-13">
          <mxGeometry relative="1" as="geometry">
            <Array as="points">
              <mxPoint x="240" y="530" />
            </Array>
          </mxGeometry>
        </mxCell>
        <mxCell id="r-qH8hkAHXEWe9PjuCYb-12" value="EDAD VALIDA" style="shape=parallelogram;perimeter=parallelogramPerimeter;whiteSpace=wrap;html=1;fixedSize=1;" vertex="1" parent="1">
          <mxGeometry x="160" y="335" width="120" height="60" as="geometry" />
        </mxCell>
        <mxCell id="r-qH8hkAHXEWe9PjuCYb-13" value="FIN" style="ellipse;whiteSpace=wrap;html=1;" vertex="1" parent="1">
          <mxGeometry x="355" y="490" width="120" height="80" as="geometry" />
        </mxCell>
      </root>
    </mxGraphModel>
  </diagram>
  <diagram id="RPYPq6yR5Z4zrAoBGvS1" name="Página-5">
    <mxGraphModel dx="1362" dy="795" grid="1" gridSize="10" guides="1" tooltips="1" connect="1" arrows="1" fold="1" page="1" pageScale="1" pageWidth="827" pageHeight="1169" math="0" shadow="0">
      <root>
        <mxCell id="0" />
        <mxCell id="1" parent="0" />
        <mxCell id="sqtzLUT9_DfKaLDmKqaf-2" style="edgeStyle=orthogonalEdgeStyle;rounded=0;orthogonalLoop=1;jettySize=auto;html=1;" edge="1" parent="1" source="sqtzLUT9_DfKaLDmKqaf-1" target="sqtzLUT9_DfKaLDmKqaf-3">
          <mxGeometry relative="1" as="geometry">
            <mxPoint x="400" y="280" as="targetPoint" />
          </mxGeometry>
        </mxCell>
        <mxCell id="sqtzLUT9_DfKaLDmKqaf-1" value="INICIO" style="ellipse;whiteSpace=wrap;html=1;" vertex="1" parent="1">
          <mxGeometry x="340" y="110" width="120" height="80" as="geometry" />
        </mxCell>
        <mxCell id="sqtzLUT9_DfKaLDmKqaf-4" style="edgeStyle=orthogonalEdgeStyle;rounded=0;orthogonalLoop=1;jettySize=auto;html=1;" edge="1" parent="1" source="sqtzLUT9_DfKaLDmKqaf-3" target="sqtzLUT9_DfKaLDmKqaf-5">
          <mxGeometry relative="1" as="geometry">
            <mxPoint x="400" y="400" as="targetPoint" />
          </mxGeometry>
        </mxCell>
        <mxCell id="sqtzLUT9_DfKaLDmKqaf-3" value="DIGITE EL NOMBRE PARA VER SI ESTA EN LA LISTA" style="shape=parallelogram;perimeter=parallelogramPerimeter;whiteSpace=wrap;html=1;fixedSize=1;" vertex="1" parent="1">
          <mxGeometry x="295" y="260" width="210" height="60" as="geometry" />
        </mxCell>
        <mxCell id="sqtzLUT9_DfKaLDmKqaf-6" style="edgeStyle=orthogonalEdgeStyle;rounded=0;orthogonalLoop=1;jettySize=auto;html=1;" edge="1" parent="1" source="sqtzLUT9_DfKaLDmKqaf-5">
          <mxGeometry relative="1" as="geometry">
            <mxPoint x="570" y="460" as="targetPoint" />
          </mxGeometry>
        </mxCell>
        <mxCell id="sqtzLUT9_DfKaLDmKqaf-9" style="edgeStyle=orthogonalEdgeStyle;rounded=0;orthogonalLoop=1;jettySize=auto;html=1;" edge="1" parent="1" source="sqtzLUT9_DfKaLDmKqaf-5">
          <mxGeometry relative="1" as="geometry">
            <mxPoint x="170" y="460" as="targetPoint" />
          </mxGeometry>
        </mxCell>
        <mxCell id="sqtzLUT9_DfKaLDmKqaf-5" value="NOMBRE ESTA EN LISTA" style="rhombus;whiteSpace=wrap;html=1;" vertex="1" parent="1">
          <mxGeometry x="330" y="400" width="140" height="120" as="geometry" />
        </mxCell>
        <mxCell id="sqtzLUT9_DfKaLDmKqaf-7" value="SI" style="text;html=1;align=center;verticalAlign=middle;resizable=0;points=[];autosize=1;strokeColor=none;fillColor=none;" vertex="1" parent="1">
          <mxGeometry x="496" y="428" width="30" height="30" as="geometry" />
        </mxCell>
        <mxCell id="sqtzLUT9_DfKaLDmKqaf-13" style="edgeStyle=orthogonalEdgeStyle;rounded=0;orthogonalLoop=1;jettySize=auto;html=1;entryX=1;entryY=0.5;entryDx=0;entryDy=0;" edge="1" parent="1" source="sqtzLUT9_DfKaLDmKqaf-8" target="sqtzLUT9_DfKaLDmKqaf-11">
          <mxGeometry relative="1" as="geometry">
            <Array as="points">
              <mxPoint x="680" y="650" />
            </Array>
          </mxGeometry>
        </mxCell>
        <mxCell id="sqtzLUT9_DfKaLDmKqaf-8" value="FELICIDADES, ESTA EWN LA LISTA" style="shape=parallelogram;perimeter=parallelogramPerimeter;whiteSpace=wrap;html=1;fixedSize=1;" vertex="1" parent="1">
          <mxGeometry x="560" y="420" width="180" height="80" as="geometry" />
        </mxCell>
        <mxCell id="sqtzLUT9_DfKaLDmKqaf-12" style="edgeStyle=orthogonalEdgeStyle;rounded=0;orthogonalLoop=1;jettySize=auto;html=1;entryX=0;entryY=0.5;entryDx=0;entryDy=0;" edge="1" parent="1" source="sqtzLUT9_DfKaLDmKqaf-10" target="sqtzLUT9_DfKaLDmKqaf-11">
          <mxGeometry relative="1" as="geometry">
            <Array as="points">
              <mxPoint x="120" y="650" />
            </Array>
          </mxGeometry>
        </mxCell>
        <mxCell id="sqtzLUT9_DfKaLDmKqaf-10" value="NO ESTA EN LA LISTA" style="shape=parallelogram;perimeter=parallelogramPerimeter;whiteSpace=wrap;html=1;fixedSize=1;" vertex="1" parent="1">
          <mxGeometry x="60" y="428" width="120" height="60" as="geometry" />
        </mxCell>
        <mxCell id="sqtzLUT9_DfKaLDmKqaf-11" value="FIN" style="ellipse;whiteSpace=wrap;html=1;" vertex="1" parent="1">
          <mxGeometry x="330" y="610" width="120" height="80" as="geometry" />
        </mxCell>
      </root>
    </mxGraphModel>
  </diagram>
</mxfile>
